<svg xmlns="http://www.w3.org/2000/svg" version="1.1" xmlns:xlink="http://www.w3.org/1999/xlink" xmlns:svgjs="http://svgjs.dev/svgjs" width="1000" height="1125" viewBox="0 0 1000 1125"><g transform="matrix(1,0,0,1,1.7053025658242404e-13,0)"><svg viewBox="0 0 320 360" data-background-color="#ffffff" preserveAspectRatio="xMidYMid meet" height="1125" width="1000" xmlns="http://www.w3.org/2000/svg" xmlns:xlink="http://www.w3.org/1999/xlink"><g id="tight-bounds" transform="matrix(1,0,0,1,0,0)"><svg viewBox="0 0 320 360" height="360" width="320"><g><svg></svg></g><g><svg viewBox="0 0 320 360" height="360" width="320"><g><path xmlns="http://www.w3.org/2000/svg" d="M20.961 227.22l3.726 4.658-1.863-6.056c-0.466-2.795-3.726 0.466-1.863 1.398M25.153 224.425c1.397 2.329 2.795 4.658 2.795 6.987 0 3.261 2.795 4.658 5.123 5.589-3.261-3.726-5.124-13.974-7.918-12.576M204.017 26.929c7.918 0 15.371-0.932 23.756 0.931 20.495 5.124 37.729 15.371 49.374 29.811l32.606 52.169c1.397 13.042 4.192 27.482 3.726 43.319 3.261 0 2.795-4.658 6.521-5.59-3.726 9.316-5.59 20.961-6.521 34.469-2.329-7.453 0-18.632 0.466-24.687-3.261 5.124-5.124 1.397-5.124-0.932 0.466-3.726-1.397-3.261-2.795-4.658-5.124-4.658-8.384-9.782-12.11-17.7 2.329-6.055 2.795-14.905-4.658-19.563-2.329-1.397-5.124-3.726-6.521-7.453-1.863-5.124-5.124-11.179-4.193-19.097 0.466-2.329-6.987 5.124-11.179 1.863-18.166-12.576-36.332-27.016-58.224-39.127-11.645 0-20.029-4.192-24.221-9.316-3.726-4.658-0.932-10.713 4.658-11.179 3.261 0 6.987-0.932 9.782 0.932 0.466-1.863 2.329-4.192 4.657-4.192M157.904 16.215l0.932 0.466c4.658 0.932 6.987 7.453 12.11 5.124 0 3.261 0.466 6.521-0.466 8.85-1.397 3.726-5.59 3.726-8.85 3.726-31.208-1.863-49.374 11.179-68.471 22.358-5.124 3.261-10.713 5.59-14.906 9.782-20.029 18.632-41.921 35.866-47.045 70.335l-4.192 38.195c-0.466 4.192-5.124 8.384-4.192 13.508l3.26 22.824c-3.261-3.261-5.124 0.932-4.192 2.795 0.466 1.397 2.329 6.055 5.124 1.863 3.726 6.987 7.453 20.495 12.576 26.55 15.837 18.632 36.332 35.4 53.101 52.169 4.192-0.932 7.453-0.932 8.384-3.727 1.397 2.795-1.397 5.59-3.726 6.056 7.453 4.658 15.837 8.85 27.016 9.781 14.44 0.932 27.948 3.261 40.524 6.522 6.521-1.863 13.042-2.795 20.029-3.261 2.329 0 3.726-3.726 6.521-4.658l0.466-4.658c2.795 4.192 2.329-1.397 0.466-4.192 3.261 2.795 4.192 5.124 5.589 6.987 0-1.397 3.726-6.521 3.727-0.466l0.931-6.055c1.397-0.932 1.863 5.124 3.261 0.931 1.397-4.192 4.192-0.932 6.987-2.329-0.932 1.863-0.466 5.59 2.794 3.261l3.727-3.261c2.329 5.59 6.055 3.261 7.918 2.329 20.495-13.042 40.99-28.413 60.553-43.784l-0.466 6.055 2.329-7.453c2.329 2.329 4.192 0.466 5.124-0.931 2.795-4.658 6.521-9.316 12.577-13.508-7.453 20.029-16.303 35.866-27.482 48.908l-4.658 5.59c0 3.261-0.932 7.453-4.658 7.918-1.863 0.466-5.59-0.932-8.384 1.863-1.397 1.863 3.261 5.59-0.466 2.795-3.261-2.329-6.521 0-10.248 0.932-2.795 0.932 1.863 3.726 2.795 5.589 0.932 1.863 1.863 3.726 1.398 6.056l-5.124-5.59c-6.055 3.261-9.782 9.316-14.906 13.974-2.329 1.863-1.397 5.124-1.397 7.918-3.261 0-6.987-0.932-8.85 0.932-1.397 1.863-0.932 4.658-0.932 7.453-4.658-0.466-5.124-7.453-9.315-6.056-4.192 0.932-8.85 1.397-12.577 3.727 2.795 5.59-4.658 2.329-3.726 3.26-6.987-4.192-13.042-7.453-20.495-4.658-15.837-5.124-35.4-2.795-49.84-0.931 0-2.329 0.466-4.658-0.466-5.124-0.932 2.329-3.726 1.397-3.26 1.397-8.85-6.055-17.7-9.782-27.016-14.905-8.384 0.932-16.303-3.261-18.632-5.59-6.521-6.055-13.974-2.795-20.029-4.192-13.042-3.261-17.7-16.769-19.098-26.084-0.932-4.658-4.658-6.521-6.055-6.056-6.055-19.563-15.371-37.263-22.824-55.429-1.863-4.658-1.397-9.316-1.397-14.44 2.329 0.932 4.658 0.466 4.192-2.794-2.329-15.371-7.918-27.016-13.974-38.195 3.261-15.837 3.726-34.469 11.179-48.443 6.521-12.576 18.632-19.098 27.016-29.811 2.795-3.726 2.795-8.85 5.59-12.11 9.316-9.316 18.632-19.098 28.879-27.482 4.658-3.726 10.247 0 17.234-1.397 2.329-8.384 11.645-15.837 20.495-13.508 3.726 0.932 11.179-8.85 13.508-9.782 3.726-1.397 1.863 3.726 1.863 6.987 8.85-6.987 20.961-10.713 32.14-14.906" fill="#4a596d" fill-rule="nonzero" stroke="none" stroke-width="1" stroke-linecap="butt" stroke-linejoin="miter" stroke-miterlimit="10" stroke-dasharray="" stroke-dashoffset="0" font-family="none" font-weight="none" font-size="none" text-anchor="none" style="mix-blend-mode: normal" data-fill-palette-color="tertiary"></path></g><g transform="matrix(1,0,0,1,64,142.57137081475054)"><svg viewBox="0 0 192 74.85725837049891" height="74.85725837049891" width="192"><g><svg viewBox="0 0 192 74.85725837049891" height="74.85725837049891" width="192"><g><svg viewBox="0 0 192 74.85725837049891" height="74.85725837049891" width="192"><g transform="matrix(1,0,0,1,0,45.24511086507592)"><svg viewBox="0 0 192 29.61214750542299" height="29.61214750542299" width="192"><g><svg viewBox="0 0 192 29.61214750542299" height="29.61214750542299" width="192"><g><svg viewBox="0 0 192 29.61214750542299" height="29.61214750542299" width="192"><g transform="matrix(1,0,0,1,0,0)"><svg width="192" viewBox="2.5 -35.25 230.47999572753906 35.54999923706055" height="29.61214750542299" data-palette-color="#4a596d"><path d="M18.8-0.5Q14.55-0.5 10.85-2.18 7.15-3.85 4.83-7.55 2.5-11.25 2.5-17.05L2.5-17.05Q2.5-22.3 4.48-26.45 6.45-30.6 10.08-32.93 13.7-35.25 18.5-35.25L18.5-35.25Q23.3-35.25 27.25-32.93 31.2-30.6 33.5-26.4 35.8-22.2 35.8-16.85L35.8-16.85Q35.8-11.25 33.35-7.58 30.9-3.9 27.03-2.2 23.15-0.5 18.8-0.5L18.8-0.5ZM18.95-2.05Q22.6-2.05 26.1-3.55 29.6-5.05 31.93-8.4 34.25-11.75 34.25-16.95L34.25-16.95Q34.25-21.75 32.2-25.58 30.15-29.4 26.58-31.55 23-33.7 18.65-33.7L18.65-33.7Q14.45-33.7 11.13-31.68 7.8-29.65 5.93-25.9 4.05-22.15 4.05-17.25L4.05-17.25Q4.05-11.65 6.38-8.25 8.7-4.85 12.1-3.45 15.5-2.05 18.95-2.05L18.95-2.05ZM53.85-25.35Q57.85-25.35 59.82-22.5 61.8-19.65 61.8-13.55L61.8-13.55 61.8-1.1Q61.8-0.15 61.05-0.15L61.05-0.15Q60.25-0.15 60.25-1.05L60.25-1.05 60.25-13.6Q60.25-18.9 58.77-21.38 57.3-23.85 53.6-23.85L53.6-23.85Q50.4-23.85 48.47-21.73 46.55-19.6 45.65-14.2L45.65-14.2Q45.2-11.5 45.2-8.7L45.2-8.7 45.25-0.7Q45.25-0.1 44.5-0.1L44.5-0.1Q43.7-0.1 43.7-0.7L43.7-0.7Q43.6-6.45 43.5-9.45L43.5-9.45Q43.45-11.25 43.4-14.38 43.35-17.5 43.35-19.9L43.35-19.9Q43.35-20.9 43.15-21.45 42.95-22 42.5-22.8L42.5-22.8Q42.4-22.95 41.95-23.7L41.95-23.7Q41.8-23.95 41.8-24.2L41.8-24.2Q41.8-24.55 42.12-24.75 42.45-24.95 42.75-24.95L42.75-24.95Q43.1-24.95 43.45-24.4L43.45-24.4Q44.95-22.05 44.95-19.9L44.95-19.9 44.95-17.8Q45.65-21.05 47.87-23.2 50.1-25.35 53.85-25.35L53.85-25.35ZM80.35 0Q76.25 0 73.42-1.8 70.6-3.6 69.2-6.5 67.8-9.4 67.8-12.65L67.8-12.65Q67.8-16.05 69.3-19 70.8-21.95 73.65-23.78 76.5-25.6 80.4-25.6L80.4-25.6Q83.75-25.6 86.35-24.23 88.95-22.85 90.4-20.48 91.85-18.1 91.85-15.1L91.85-15.1Q91.85-13.85 91.55-13.45 91.25-13.05 90.15-13.05L90.15-13.05 69.35-12.45Q69.35-9.5 70.67-7 72-4.5 74.52-3.03 77.05-1.55 80.4-1.55L80.4-1.55Q82.95-1.55 84.72-2.38 86.5-3.2 87.5-4.25 88.5-5.3 89.75-7.05L89.75-7.05Q89.9-7.25 90.2-7.25L90.2-7.25Q90.55-7.25 90.85-7.03 91.15-6.8 91.15-6.45L91.15-6.45Q91.15-6.2 90.85-5.8L90.85-5.8Q89.2-3.3 86.87-1.65 84.55 0 80.35 0L80.35 0ZM69.35-13.95L90.05-14.6Q90.25-14.6 90.32-14.7 90.4-14.8 90.4-15.2L90.4-15.2Q90.4-17.7 89.12-19.7 87.85-21.7 85.6-22.88 83.35-24.05 80.55-24.05L80.55-24.05Q77.15-24.05 74.6-22.43 72.05-20.8 70.7-18.43 69.35-16.05 69.35-13.95L69.35-13.95ZM122.44-35.2Q125.84-35.2 128.92-33.9 131.99-32.6 133.92-30.08 135.84-27.55 135.84-24.15L135.84-24.15Q135.84-21 134.17-18.68 132.49-16.35 129.52-15.1 126.54-13.85 122.74-13.85L122.74-13.85Q117.84-13.85 114.64-15.85L114.64-15.85 114.49-0.7Q114.49 0.3 113.64 0.3L113.64 0.3Q113.19 0.3 113.02 0 112.84-0.3 112.84-1.2L112.84-1.2Q112.84-2.95 112.94-6.55L112.94-6.55Q113.04-11.35 113.04-17L113.04-17Q113.04-22.15 112.84-28.15L112.84-28.15Q112.74-30.05 112.74-30.75L112.74-30.75 111.94-30.3Q111.74-30.2 111.59-30.2L111.59-30.2Q111.24-30.2 111.04-30.5 110.84-30.8 110.84-31.05L110.84-31.05Q110.84-31.4 111.09-31.55L111.09-31.55Q112.44-32.3 112.69-32.4L112.69-32.4 112.69-34.2Q112.69-34.75 112.87-35 113.04-35.25 113.54-35.25L113.54-35.25Q114.39-35.25 114.39-34.45L114.39-34.45 114.39-33.25Q118.54-35.2 122.44-35.2L122.44-35.2ZM122.24-15.4Q125.94-15.4 128.69-16.57 131.44-17.75 132.87-19.75 134.29-21.75 134.29-24.25L134.29-24.25Q134.29-26.95 132.64-29.1 130.99-31.25 128.24-32.45 125.49-33.65 122.29-33.65L122.29-33.65Q120.09-33.65 118.22-33.13 116.34-32.6 114.39-31.65L114.39-31.65Q114.39-30.4 114.49-28.5L114.49-28.5 114.54-25.2 114.59-20.45Q114.64-19.15 114.64-17.4L114.64-17.4Q116.64-16.25 118.47-15.83 120.29-15.4 122.24-15.4L122.24-15.4ZM143.04-29.75Q142.14-29.75 141.49-30.38 140.84-31 140.84-31.9L140.84-31.9Q140.84-32.85 141.49-33.52 142.14-34.2 143.14-34.2L143.14-34.2Q144.09-34.2 144.69-33.58 145.29-32.95 145.29-31.95L145.29-31.95Q145.29-30.95 144.61-30.35 143.94-29.75 143.04-29.75L143.04-29.75ZM142.24-0.3Q141.44-0.3 141.44-1.05L141.44-1.05 141.94-24.2Q141.94-25.2 142.74-25.2L142.74-25.2Q143.14-25.2 143.34-24.98 143.54-24.75 143.54-24.2L143.54-24.2 142.99-1.1Q142.99-0.3 142.24-0.3L142.24-0.3ZM163.84 0Q159.74 0 156.91-1.8 154.09-3.6 152.69-6.5 151.29-9.4 151.29-12.65L151.29-12.65Q151.29-16.05 152.79-19 154.29-21.95 157.14-23.78 159.99-25.6 163.89-25.6L163.89-25.6Q167.24-25.6 169.84-24.23 172.44-22.85 173.89-20.48 175.34-18.1 175.34-15.1L175.34-15.1Q175.34-13.85 175.04-13.45 174.74-13.05 173.64-13.05L173.64-13.05 152.84-12.45Q152.84-9.5 154.16-7 155.49-4.5 158.01-3.03 160.54-1.55 163.89-1.55L163.89-1.55Q166.44-1.55 168.21-2.38 169.99-3.2 170.99-4.25 171.99-5.3 173.24-7.05L173.24-7.05Q173.39-7.25 173.69-7.25L173.69-7.25Q174.04-7.25 174.34-7.03 174.64-6.8 174.64-6.45L174.64-6.45Q174.64-6.2 174.34-5.8L174.34-5.8Q172.69-3.3 170.36-1.65 168.04 0 163.84 0L163.84 0ZM152.84-13.95L173.54-14.6Q173.74-14.6 173.81-14.7 173.89-14.8 173.89-15.2L173.89-15.2Q173.89-17.7 172.61-19.7 171.34-21.7 169.09-22.88 166.84-24.05 164.04-24.05L164.04-24.05Q160.64-24.05 158.09-22.43 155.54-20.8 154.19-18.43 152.84-16.05 152.84-13.95L152.84-13.95ZM192.38-0.1Q188.33-0.1 185.63-1.78 182.93-3.45 181.63-6.18 180.33-8.9 180.33-12.05L180.33-12.05Q180.33-15.35 181.68-18.48 183.03-21.6 185.81-23.6 188.58-25.6 192.58-25.6L192.58-25.6Q195.68-25.6 197.98-24.43 200.28-23.25 201.56-21.63 202.83-20 203.23-18.55L203.23-18.55Q203.28-18.45 203.28-18.2L203.28-18.2Q203.28-17.75 202.73-17.6L202.73-17.6 202.53-17.6Q201.88-17.6 201.68-18.3L201.68-18.3Q201.28-19.7 200.13-21 198.98-22.3 197.13-23.18 195.28-24.05 192.88-24.05L192.88-24.05Q189.43-24.05 186.96-22.33 184.48-20.6 183.18-17.85 181.88-15.1 181.88-12.15L181.88-12.15Q181.88-9.35 183.06-6.98 184.23-4.6 186.63-3.13 189.03-1.65 192.48-1.65L192.48-1.65Q195.83-1.65 198.06-2.98 200.28-4.3 201.33-6.13 202.38-7.95 202.38-9.4L202.38-9.4Q202.38-10.25 203.18-10.25L203.18-10.25Q203.93-10.25 203.93-9.3L203.93-9.3Q203.93-7.45 202.78-5.33 201.63-3.2 199.03-1.65 196.43-0.1 192.38-0.1L192.38-0.1ZM221.48 0Q217.38 0 214.56-1.8 211.73-3.6 210.33-6.5 208.93-9.4 208.93-12.65L208.93-12.65Q208.93-16.05 210.43-19 211.93-21.95 214.78-23.78 217.63-25.6 221.53-25.6L221.53-25.6Q224.88-25.6 227.48-24.23 230.08-22.85 231.53-20.48 232.98-18.1 232.98-15.1L232.98-15.1Q232.98-13.85 232.68-13.45 232.38-13.05 231.28-13.05L231.28-13.05 210.48-12.45Q210.48-9.5 211.81-7 213.13-4.5 215.66-3.03 218.18-1.55 221.53-1.55L221.53-1.55Q224.08-1.55 225.86-2.38 227.63-3.2 228.63-4.25 229.63-5.3 230.88-7.05L230.88-7.05Q231.03-7.25 231.33-7.25L231.33-7.25Q231.68-7.25 231.98-7.03 232.28-6.8 232.28-6.45L232.28-6.45Q232.28-6.2 231.98-5.8L231.98-5.8Q230.33-3.3 228.01-1.65 225.68 0 221.48 0L221.48 0ZM210.48-13.95L231.18-14.6Q231.38-14.6 231.46-14.7 231.53-14.8 231.53-15.2L231.53-15.2Q231.53-17.7 230.26-19.7 228.98-21.7 226.73-22.88 224.48-24.05 221.68-24.05L221.68-24.05Q218.28-24.05 215.73-22.43 213.18-20.8 211.83-18.43 210.48-16.05 210.48-13.95L210.48-13.95Z" opacity="1" transform="matrix(1,0,0,1,0,0)" fill="#4a596d" class="undefined-text-0" data-fill-palette-color="primary" id="text-0"></path></svg></g></svg></g></svg></g></svg></g><g transform="matrix(1,0,0,1,75.63942773159877,0)"><svg viewBox="0 0 40.721144536802456 40.92398785249458" height="40.92398785249458" width="40.721144536802456"><g><svg xmlns="http://www.w3.org/2000/svg" xmlns:xlink="http://www.w3.org/1999/xlink" version="1.1" x="0" y="0" viewBox="0.0003867149353027344 0 99.5043716430664 100.00003051757812" enable-background="new 0 0 99.504 100" xml:space="preserve" width="40.721144536802456" height="40.92398785249458" class="icon-icon-0" data-fill-palette-color="accent" id="icon-0"><path d="M92.247 100L7.326 99.948c-5.208 0-8.366-4.128-7.012-9.154l1.94-7.109c1.354-5.052 6.738-9.153 11.947-9.153h70.853c5.215 0 10.631 4.102 12.057 9.114l2.051 7.253C100.581 95.911 97.462 100.013 92.247 100z" fill="#4a596d" data-fill-palette-color="accent"></path><path d="M93.335 0H6.18C3.895 0 2.052 1.849 2.052 4.127v60.704c0 2.278 1.842 4.127 4.127 4.127h87.155c2.285 0 4.127-1.849 4.127-4.127V4.127C97.462 1.849 95.62 0 93.335 0zM89.214 60.703H10.301V8.255h78.913V60.703z" fill="#4a596d" data-fill-palette-color="accent"></path></svg></g></svg></g><g></g></svg></g></svg></g></svg></g></svg></g><defs></defs></svg><rect width="320" height="360" fill="none" stroke="none" visibility="hidden"></rect></g></svg></g></svg>